<?xml version="1.0" encoding="UTF-8" standalone="no"?>
<svg width="18px" height="18px" viewBox="0 0 18 18" version="1.1" xmlns="http://www.w3.org/2000/svg" xmlns:xlink="http://www.w3.org/1999/xlink" xmlns:sketch="http://www.bohemiancoding.com/sketch/ns">
    <title>Play Sound</title>
    <description>Created with Sketch (http://www.bohemiancoding.com/sketch)</description>
    <defs></defs>
    <g id="Page-1" stroke="none" stroke-width="1" fill="none" fill-rule="evenodd" sketch:type="MSPage">
        <path d="M9,18 C13.970563,18 18,13.970563 18,9 C18,4.02943701 13.970563,0 9,0 C4.02943701,0 0,4.02943701 0,9 C0,13.970563 4.02943701,18 9,18 Z M9,17 C13.4182782,17 17,13.4182782 17,9 C17,4.58172178 13.4182782,1 9,1 C4.58172178,1 1,4.58172178 1,9 C1,13.4182782 4.58172178,17 9,17 Z M7,5 L12,9 L7,13 L7,5 Z" id="Play-Sound" fill="#FFFFFF" sketch:type="MSShapeGroup"></path>
    </g>
</svg>